<svg xmlns="http://www.w3.org/2000/svg" width="64" height="64" viewBox="0 0 64 64" role="img" aria-label="Savings piggy bank">
  <!-- coin -->
  <ellipse cx="34" cy="10" rx="9" ry="5.5" fill="#F4C542"/>
  <ellipse cx="34" cy="10" rx="6.5" ry="3.7" fill="#FFD666" opacity="0.9"/>

  <!-- body -->
  <path d="M12 31c0-10 9.4-17 21-17s21 7 21 17c0 4-1.6 7.7-4.3 10.6v5.7c0 2-1.6 3.7-3.7 3.7H41.8l-2.4 4.6c-.5.9-1.4 1.5-2.5 1.5h-7.8c-1 0-2-.6-2.5-1.5L24 51H19.7C17.7 51 16 49.4 16 47.3v-3.9c-2.5-2.9-4-6.7-4-12.4Z"
        fill="#FF9800"/>

  <!-- snout -->
  <path d="M50.5 31c3 0 5.5 2.1 5.5 4.7s-2.5 4.7-5.5 4.7H47c-1.6 0-2.9-1.1-3.2-2.6c-.3-1.7-.3-3.6 0-5.3c.3-1.5 1.6-2.5 3.2-2.5h3.5Z"
        fill="#FF8A00"/>

  <!-- nostrils -->
  <circle cx="51.8" cy="35.6" r="1.1" fill="#B35A00"/>
  <circle cx="48.8" cy="35.6" r="1.1" fill="#B35A00"/>

  <!-- ear -->
  <path d="M23.5 16.5c-3.2 1-5.9 3.1-7.6 5.9c-.5.8.2 1.9 1.2 1.6c2.5-.6 5.2-.6 7.8 0c.9.2 1.6-.8 1.1-1.6c-.7-1.3-1.6-4-2.5-5.9Z"
        fill="#FF8A00"/>

  <!-- slot -->
  <rect x="25" y="23" width="16.5" height="3.2" rx="1.6" fill="#B35A00" opacity="0.55"/>

  <!-- eye -->
  <circle cx="36.5" cy="32" r="2" fill="#2B2B2B"/>
  <circle cx="37.2" cy="31.3" r="0.7" fill="#FFFFFF"/>

  <!-- legs -->
  <path d="M22 51h6v6h-5.2c-.4 0-.8-.4-.8-.8V51Z" fill="#D87900"/>
  <path d="M38 51h6v6h-5.2c-.4 0-.8-.4-.8-.8V51Z" fill="#D87900"/>

  <!-- tail -->
  <path d="M15.5 34c-2.6-1.3-4.2-3.1-4.2-5.4c0-1.7 1-3.3 2.7-4.4"
        fill="none" stroke="#D87900" stroke-width="3" stroke-linecap="round"/>
</svg>
